<svg width="595" height="842" viewBox="0 0 595 842" fill="none" xmlns="http://www.w3.org/2000/svg">
<rect width="595" height="842" fill="url(#paint0_linear_501_3)"/>
<path d="M104.72 194.48C103.813 194.533 103.16 194.64 102.76 194.8C102.36 194.96 102.08 195.267 101.92 195.72C101.787 196.173 101.72 196.907 101.72 197.92V217.76C101.72 218.773 101.787 219.507 101.92 219.96C102.08 220.413 102.36 220.72 102.76 220.88C103.16 221.04 103.813 221.147 104.72 221.2V222C103.28 221.92 101.267 221.88 98.68 221.88C95.8267 221.88 93.72 221.92 92.36 222V221.2C93.24 221.147 93.88 221.04 94.28 220.88C94.7067 220.72 94.9867 220.413 95.12 219.96C95.28 219.507 95.36 218.773 95.36 217.76V197.92C95.36 196.907 95.28 196.173 95.12 195.72C94.9867 195.267 94.7067 194.96 94.28 194.8C93.88 194.64 93.24 194.533 92.36 194.48V193.68C93.72 193.76 95.8267 193.8 98.68 193.8C101.267 193.8 103.28 193.76 104.72 193.68V194.48ZM143.279 198.48C142.319 198.533 141.612 198.64 141.159 198.8C140.732 198.96 140.439 199.267 140.279 199.72C140.119 200.173 140.039 200.907 140.039 201.92V217.76C140.039 218.773 140.119 219.507 140.279 219.96C140.439 220.413 140.732 220.72 141.159 220.88C141.612 221.04 142.319 221.147 143.279 221.2V222C141.839 221.92 139.826 221.88 137.239 221.88C134.146 221.88 131.879 221.92 130.439 222V221.2C131.399 221.147 132.092 221.04 132.519 220.88C132.972 220.72 133.279 220.413 133.439 219.96C133.599 219.507 133.679 218.773 133.679 217.76V200.2L124.519 222.2H123.879L114.599 200.24V216.64C114.599 217.813 114.706 218.707 114.919 219.32C115.132 219.907 115.519 220.333 116.079 220.6C116.666 220.867 117.546 221.067 118.719 221.2V222C117.572 221.92 116.052 221.88 114.159 221.88C112.692 221.88 111.532 221.92 110.679 222V221.2C111.559 221.067 112.199 220.867 112.599 220.6C113.026 220.333 113.306 219.907 113.439 219.32C113.599 218.733 113.679 217.84 113.679 216.64V201.92C113.679 200.907 113.599 200.173 113.439 199.72C113.279 199.267 112.972 198.96 112.519 198.8C112.092 198.64 111.399 198.533 110.439 198.48V197.68C111.826 197.76 113.946 197.8 116.799 197.8C118.186 197.8 119.372 197.76 120.359 197.68L126.999 213.64L133.679 197.8H137.239C139.826 197.8 141.839 197.76 143.279 197.68V198.48ZM170.593 218.64C171.366 220.293 172.206 221.147 173.113 221.2V222C171.833 221.92 170.086 221.88 167.873 221.88C165.019 221.88 162.913 221.92 161.553 222V221.2C162.433 221.147 163.086 221.013 163.513 220.8C163.939 220.56 164.153 220.173 164.153 219.64C164.153 219.16 163.979 218.56 163.633 217.84L161.633 213.28H153.233L152.753 214.36C152.006 216.12 151.633 217.493 151.633 218.48C151.633 219.387 151.926 220.053 152.513 220.48C153.099 220.907 153.966 221.147 155.113 221.2V222C153.593 221.92 152.059 221.88 150.513 221.88C149.073 221.88 147.993 221.92 147.273 222V221.2C147.913 221.067 148.499 220.667 149.033 220C149.593 219.307 150.179 218.28 150.793 216.92L159.233 197.6C159.446 197.627 159.753 197.64 160.153 197.64C160.579 197.64 160.886 197.627 161.073 197.6L170.593 218.64ZM161.273 212.48L157.433 203.72L153.593 212.48H161.273ZM190.847 197.12C192.447 197.12 193.727 197.333 194.687 197.76C195.647 198.187 196.714 198.84 197.887 199.72C198.234 199.987 198.501 200.12 198.688 200.12C199.194 200.12 199.527 199.307 199.687 197.68H200.607C200.501 199.2 200.447 201.867 200.447 205.68H199.527C199.101 203.6 198.434 202.027 197.528 200.96C196.701 200.053 195.861 199.36 195.007 198.88C194.181 198.4 193.167 198.16 191.967 198.16C190.234 198.16 188.714 198.64 187.407 199.6C186.127 200.56 185.141 201.933 184.447 203.72C183.754 205.48 183.407 207.533 183.407 209.88C183.407 213.96 184.074 216.96 185.407 218.88C186.741 220.8 188.727 221.76 191.367 221.76C192.274 221.76 193.034 221.573 193.647 221.2C194.207 220.853 194.487 220.28 194.487 219.48V215.76C194.487 214.64 194.381 213.827 194.167 213.32C193.981 212.813 193.634 212.467 193.127 212.28C192.621 212.093 191.807 211.973 190.687 211.92V211.12C192.421 211.2 194.621 211.24 197.287 211.24C199.554 211.24 201.261 211.2 202.407 211.12V211.92C201.847 211.973 201.447 212.08 201.207 212.24C200.968 212.4 200.808 212.707 200.727 213.16C200.647 213.587 200.607 214.32 200.607 215.36V222H199.807C199.701 221.013 199.421 220.52 198.967 220.52C198.541 220.52 197.874 220.76 196.968 221.24C194.967 222.12 192.914 222.56 190.807 222.56C186.461 222.56 183.074 221.493 180.647 219.36C178.221 217.2 177.007 214.187 177.007 210.32C177.007 207.653 177.594 205.333 178.767 203.36C179.941 201.36 181.567 199.827 183.647 198.76C185.754 197.667 188.154 197.12 190.847 197.12ZM228.774 216.8C228.774 218.32 228.868 220.053 229.054 222C227.321 221.92 224.401 221.88 220.294 221.88C214.801 221.88 210.668 221.92 207.894 222V221.2C208.801 221.147 209.454 221.04 209.854 220.88C210.254 220.72 210.521 220.413 210.654 219.96C210.814 219.507 210.894 218.773 210.894 217.76V201.92C210.894 200.907 210.814 200.173 210.654 199.72C210.521 199.267 210.241 198.96 209.814 198.8C209.414 198.64 208.774 198.533 207.894 198.48V197.68C210.668 197.76 214.801 197.8 220.294 197.8C224.028 197.8 226.681 197.76 228.254 197.68C228.068 199.467 227.974 201.067 227.974 202.48C227.974 203.52 228.014 204.347 228.094 204.96H227.174C226.774 202.667 226.081 201.04 225.094 200.08C224.108 199.093 222.748 198.6 221.014 198.6H219.534C218.841 198.6 218.321 198.667 217.974 198.8C217.628 198.907 217.374 199.147 217.214 199.52C217.081 199.867 217.014 200.427 217.014 201.2V209.36H218.894C220.121 209.36 221.041 208.933 221.654 208.08C222.294 207.2 222.721 206.187 222.934 205.04H223.854C223.774 205.947 223.734 206.987 223.734 208.16V209.76C223.734 210.96 223.814 212.533 223.974 214.48H223.054C222.868 213.227 222.441 212.2 221.774 211.4C221.134 210.573 220.174 210.16 218.894 210.16H217.014V218.48C217.014 219.253 217.081 219.827 217.214 220.2C217.374 220.547 217.628 220.787 217.974 220.92C218.321 221.027 218.841 221.08 219.534 221.08H221.254C223.148 221.08 224.628 220.533 225.694 219.44C226.788 218.347 227.548 216.507 227.974 213.92H228.894C228.814 214.667 228.774 215.627 228.774 216.8ZM274.365 194.48C273.485 194.613 272.832 194.84 272.405 195.16C272.005 195.48 271.725 195.987 271.565 196.68C271.432 197.373 271.365 198.4 271.365 199.76V222.08L270.405 222.04L269.325 222.08L251.965 200.08V215.44C251.965 217.013 252.045 218.173 252.205 218.92C252.365 219.64 252.712 220.173 253.245 220.52C253.779 220.84 254.645 221.067 255.845 221.2V222C254.805 221.92 253.365 221.88 251.525 221.88C250.059 221.88 248.899 221.92 248.045 222V221.2C248.925 221.067 249.565 220.84 249.965 220.52C250.392 220.2 250.672 219.693 250.805 219C250.965 218.307 251.045 217.28 251.045 215.92V197.92C251.045 196.907 250.965 196.173 250.805 195.72C250.672 195.267 250.392 194.96 249.965 194.8C249.565 194.64 248.925 194.533 248.045 194.48V193.68C248.899 193.76 250.059 193.8 251.525 193.8C252.859 193.8 254.005 193.76 254.965 193.68L270.445 212.76V200.24C270.445 198.667 270.365 197.52 270.205 196.8C270.045 196.053 269.699 195.52 269.165 195.2C268.632 194.853 267.765 194.613 266.565 194.48V193.68C267.605 193.76 269.045 193.8 270.885 193.8C272.379 193.8 273.539 193.76 274.365 193.68V194.48ZM293.483 197.12C296.176 197.12 298.536 197.613 300.563 198.6C302.589 199.56 304.163 200.987 305.283 202.88C306.403 204.747 306.963 206.987 306.963 209.6C306.963 212.16 306.389 214.427 305.243 216.4C304.096 218.347 302.496 219.867 300.443 220.96C298.389 222.027 296.056 222.56 293.443 222.56C290.749 222.56 288.389 222.08 286.363 221.12C284.336 220.133 282.763 218.707 281.643 216.84C280.523 214.947 279.963 212.693 279.963 210.08C279.963 207.52 280.536 205.267 281.683 203.32C282.829 201.347 284.429 199.827 286.483 198.76C288.536 197.667 290.869 197.12 293.483 197.12ZM293.323 197.84C291.936 197.84 290.709 198.36 289.643 199.4C288.603 200.413 287.789 201.84 287.203 203.68C286.643 205.493 286.363 207.573 286.363 209.92C286.363 212.293 286.683 214.387 287.323 216.2C287.963 218.013 288.829 219.413 289.923 220.4C291.043 221.36 292.269 221.84 293.603 221.84C294.989 221.84 296.203 221.333 297.243 220.32C298.309 219.28 299.123 217.853 299.683 216.04C300.269 214.2 300.563 212.107 300.563 209.76C300.563 207.387 300.243 205.293 299.603 203.48C298.963 201.667 298.083 200.28 296.963 199.32C295.869 198.333 294.656 197.84 293.323 197.84ZM336.674 197.68C336.488 199.707 336.394 201.52 336.394 203.12C336.394 204.613 336.434 205.787 336.514 206.64H335.594C335.221 204.613 334.768 203.027 334.234 201.88C333.728 200.733 333.061 199.907 332.234 199.4C331.434 198.867 330.394 198.6 329.114 198.6H327.874V217.36C327.874 218.48 327.981 219.293 328.194 219.8C328.408 220.307 328.781 220.653 329.314 220.84C329.848 221.027 330.714 221.147 331.914 221.2V222C330.474 221.92 328.074 221.88 324.714 221.88C321.328 221.88 318.994 221.92 317.714 222V221.2C318.914 221.147 319.781 221.027 320.314 220.84C320.848 220.653 321.221 220.307 321.434 219.8C321.648 219.293 321.754 218.48 321.754 217.36V198.6H320.514C319.234 198.6 318.181 198.867 317.354 199.4C316.554 199.907 315.888 200.733 315.354 201.88C314.848 203.027 314.408 204.613 314.034 206.64H313.114C313.194 205.787 313.234 204.613 313.234 203.12C313.234 201.52 313.141 199.707 312.954 197.68C315.274 197.76 319.194 197.8 324.714 197.8C330.341 197.8 334.328 197.76 336.674 197.68ZM375.448 193.68C375.261 195.947 375.168 197.973 375.168 199.76C375.168 201.013 375.208 202.027 375.287 202.8H374.368C373.834 199.787 373.034 197.667 371.968 196.44C370.901 195.213 369.408 194.6 367.488 194.6H366.168C365.341 194.6 364.741 194.667 364.368 194.8C363.994 194.933 363.741 195.2 363.608 195.6C363.474 195.973 363.408 196.587 363.408 197.44V207.52H364.808C366.221 207.52 367.288 207 368.008 205.96C368.754 204.92 369.274 203.68 369.568 202.24H370.488C370.408 203.36 370.368 204.613 370.368 206V207.92C370.368 209.28 370.448 211.173 370.608 213.6H369.688C369.128 210.08 367.501 208.32 364.808 208.32H363.408V217.52C363.408 218.587 363.514 219.373 363.728 219.88C363.968 220.36 364.368 220.68 364.928 220.84C365.514 221 366.434 221.093 367.688 221.12V222C364.408 221.92 361.968 221.88 360.368 221.88C359.034 221.88 357.354 221.907 355.327 221.96L354.048 222V221.2C354.928 221.147 355.568 221.04 355.968 220.88C356.394 220.72 356.674 220.413 356.808 219.96C356.968 219.507 357.048 218.773 357.048 217.76V197.92C357.048 196.907 356.968 196.173 356.808 195.72C356.674 195.267 356.394 194.96 355.968 194.8C355.568 194.64 354.928 194.533 354.048 194.48V193.68C356.928 193.76 361.274 193.8 367.088 193.8C371.008 193.8 373.794 193.76 375.448 193.68ZM394.408 197.12C397.101 197.12 399.461 197.613 401.488 198.6C403.514 199.56 405.088 200.987 406.208 202.88C407.328 204.747 407.888 206.987 407.888 209.6C407.888 212.16 407.314 214.427 406.168 216.4C405.021 218.347 403.421 219.867 401.368 220.96C399.314 222.027 396.981 222.56 394.368 222.56C391.674 222.56 389.314 222.08 387.288 221.12C385.261 220.133 383.688 218.707 382.568 216.84C381.448 214.947 380.888 212.693 380.888 210.08C380.888 207.52 381.461 205.267 382.608 203.32C383.754 201.347 385.354 199.827 387.408 198.76C389.461 197.667 391.794 197.12 394.408 197.12ZM394.248 197.84C392.861 197.84 391.634 198.36 390.568 199.4C389.528 200.413 388.714 201.84 388.128 203.68C387.568 205.493 387.288 207.573 387.288 209.92C387.288 212.293 387.608 214.387 388.248 216.2C388.888 218.013 389.754 219.413 390.848 220.4C391.968 221.36 393.194 221.84 394.528 221.84C395.914 221.84 397.128 221.333 398.168 220.32C399.234 219.28 400.048 217.853 400.608 216.04C401.194 214.2 401.488 212.107 401.488 209.76C401.488 207.387 401.168 205.293 400.528 203.48C399.888 201.667 399.008 200.28 397.888 199.32C396.794 198.333 395.581 197.84 394.248 197.84ZM438.724 198.48C437.791 198.613 437.097 198.84 436.644 199.16C436.191 199.48 435.884 199.987 435.724 200.68C435.564 201.373 435.484 202.4 435.484 203.76V211.16C435.484 213 435.351 214.573 435.084 215.88C434.844 217.16 434.431 218.28 433.844 219.24C433.204 220.253 432.244 221.067 430.964 221.68C429.711 222.267 428.284 222.56 426.684 222.56C423.671 222.56 421.324 221.973 419.644 220.8C418.711 220.107 418.004 219.36 417.524 218.56C417.044 217.76 416.697 216.8 416.484 215.68C416.297 214.533 416.204 213.067 416.204 211.28V201.92C416.204 200.907 416.124 200.173 415.964 199.72C415.831 199.267 415.551 198.96 415.124 198.8C414.724 198.64 414.084 198.533 413.204 198.48V197.68C414.537 197.76 416.564 197.8 419.284 197.8C421.871 197.8 423.884 197.76 425.324 197.68V198.48C424.417 198.533 423.764 198.64 423.364 198.8C422.964 198.96 422.684 199.267 422.524 199.72C422.391 200.173 422.324 200.907 422.324 201.92V211.96C422.324 213.88 422.444 215.467 422.684 216.72C422.951 217.973 423.497 218.987 424.324 219.76C425.151 220.533 426.377 220.92 428.004 220.92C430.431 220.92 432.124 220.107 433.084 218.48C434.071 216.827 434.564 214.533 434.564 211.6V204.24C434.564 202.693 434.471 201.547 434.284 200.8C434.097 200.053 433.737 199.52 433.204 199.2C432.671 198.853 431.831 198.613 430.684 198.48V197.68C431.724 197.76 433.164 197.8 435.004 197.8C436.604 197.8 437.844 197.76 438.724 197.68V198.48ZM468.845 198.48C467.965 198.613 467.311 198.813 466.885 199.08C466.485 199.347 466.205 199.773 466.045 200.36C465.911 200.947 465.845 201.84 465.845 203.04V222.08L464.765 222.04L463.725 222.08L447.725 202.2V216.64C447.725 217.813 447.831 218.707 448.045 219.32C448.258 219.907 448.645 220.333 449.205 220.6C449.765 220.867 450.645 221.067 451.845 221.2V222C450.645 221.92 449.125 221.88 447.285 221.88C445.818 221.88 444.658 221.92 443.805 222V221.2C444.685 221.067 445.325 220.867 445.725 220.6C446.151 220.333 446.431 219.907 446.565 219.32C446.725 218.733 446.805 217.84 446.805 216.64V201.92C446.805 200.907 446.725 200.173 446.565 199.72C446.431 199.267 446.151 198.96 445.725 198.8C445.325 198.64 444.685 198.533 443.805 198.48V197.68C444.658 197.76 445.818 197.8 447.285 197.8C449.178 197.8 450.805 197.76 452.165 197.68L464.925 213.52V203.04C464.925 201.867 464.818 200.987 464.605 200.4C464.391 199.787 463.991 199.347 463.405 199.08C462.845 198.813 461.978 198.613 460.805 198.48V197.68C461.978 197.76 463.498 197.8 465.365 197.8C466.858 197.8 468.018 197.76 468.845 197.68V198.48ZM486.507 197.68C491.173 197.68 494.667 198.693 496.987 200.72C499.307 202.72 500.467 205.653 500.467 209.52C500.467 212.027 499.907 214.227 498.787 216.12C497.667 217.987 496.027 219.44 493.867 220.48C491.707 221.493 489.133 222 486.147 222L483.587 221.96C481.88 221.907 480.627 221.88 479.827 221.88C477.453 221.88 475.64 221.92 474.387 222V221.2C475.293 221.147 475.947 221.04 476.347 220.88C476.747 220.72 477.013 220.413 477.147 219.96C477.307 219.507 477.387 218.773 477.387 217.76V201.92C477.387 200.907 477.307 200.173 477.147 199.72C477.013 199.267 476.747 198.96 476.347 198.8C475.947 198.64 475.293 198.533 474.387 198.48V197.68C475.4 197.76 476.827 197.8 478.667 197.8L482.507 197.76C484.48 197.707 485.813 197.68 486.507 197.68ZM485.987 198.4C485.293 198.4 484.773 198.493 484.427 198.68C484.08 198.867 483.84 199.2 483.707 199.68C483.573 200.16 483.507 200.88 483.507 201.84V217.84C483.507 218.8 483.573 219.52 483.707 220C483.84 220.48 484.08 220.813 484.427 221C484.773 221.187 485.307 221.28 486.027 221.28C488.08 221.28 489.693 220.853 490.867 220C492.04 219.12 492.867 217.84 493.347 216.16C493.827 214.48 494.067 212.32 494.067 209.68C494.067 205.787 493.453 202.933 492.227 201.12C491 199.307 488.92 198.4 485.987 198.4Z" fill="white"/>
<defs>
<linearGradient id="paint0_linear_501_3" x1="297.5" y1="1.49012e-08" x2="297" y2="842" gradientUnits="userSpaceOnUse">
<stop stop-color="#00104A"/>
<stop offset="0.994828" stop-color="#0025AD"/>
<stop offset="1" stop-color="#000F47"/>
</linearGradient>
</defs>
</svg>
